<svg version="1.1" id="Layer_1" xmlns="http://www.w3.org/2000/svg" xmlns:xlink="http://www.w3.org/1999/xlink" x="0px" y="0px"
	 width="100%" viewBox="0 0 1024 416" enable-background="new 0 0 1024 416" xml:space="preserve">
<path fill="#DE0E10" opacity="1.000000" stroke="none" 
	d="
M92.884171,248.374985 
	C90.708626,247.814163 88.939232,247.343597 87.176514,246.849243 
	C61.743172,239.716400 58.644543,215.318527 68.724892,197.814438 
	C78.174133,181.406235 93.168137,171.154449 109.225029,162.411423 
	C139.105988,146.141174 171.290329,135.818253 203.934708,126.807343 
	C227.526672,120.295189 251.460785,115.224518 275.564484,111.168648 
	C301.637085,106.781487 327.867188,103.385017 354.169159,100.501068 
	C369.880402,98.778366 385.597076,97.168320 401.342346,95.889839 
	C423.079163,94.124855 444.864746,93.242661 466.671600,92.659752 
	C502.319702,91.706856 537.972351,91.234421 573.619812,91.940468 
	C600.577332,92.474396 627.555054,93.246086 654.456970,94.960388 
	C678.851013,96.514893 703.178894,99.185539 727.464294,102.183662 
	C755.696228,105.668991 783.900330,109.312790 811.808167,114.829216 
	C858.916077,124.140839 905.356812,135.764648 948.861450,156.852600 
	C962.859497,163.637833 976.148071,171.666718 987.521973,182.351883 
	C996.582214,190.863464 1003.305359,200.876114 1003.280029,214.061218 
	C1003.278442,214.889725 1003.190674,215.724472 1003.059082,216.542816 
	C1003.013794,216.824463 1002.712463,217.064941 1002.521667,217.327133 
	C1001.579834,217.749115 1000.877625,217.256775 1000.353699,216.608582 
	C986.058777,198.923584 966.601318,188.614548 946.412231,179.710648 
	C912.622131,164.808350 877.322510,154.516037 841.203186,146.977478 
	C834.626221,145.604782 834.317688,145.832031 834.315125,152.403244 
	C834.298035,195.733841 834.299927,239.064423 834.286133,282.395020 
	C834.283997,289.078827 834.269409,289.375000 827.587524,289.559906 
	C819.104736,289.794647 810.607056,289.455688 802.115601,289.436798 
	C799.816162,289.431671 798.716492,288.474518 798.762695,286.166260 
	C798.789368,284.834076 798.722961,283.500305 798.722900,282.167267 
	C798.721558,239.336639 798.719604,196.505997 798.728210,153.675369 
	C798.729553,146.842407 798.841675,146.853394 805.744446,146.672989 
	C812.850464,146.487259 820.011780,147.356827 827.129944,145.545761 
	C818.983582,142.177032 810.321838,140.975708 801.802185,139.344559 
	C764.015320,132.109955 725.902893,127.116516 687.611755,123.558418 
	C671.375244,122.049690 655.074890,121.149345 638.786682,120.291740 
	C589.515686,117.697533 540.196533,118.046799 490.887238,118.348320 
	C462.086365,118.524429 433.363251,120.279137 404.662354,122.948296 
	C364.715149,126.663353 324.917480,131.425156 285.407928,138.330475 
	C232.629654,147.554840 180.953308,160.749954 132.121445,183.415741 
	C120.182655,188.957260 108.501862,195.103271 99.035980,204.588821 
	C93.453354,210.183105 94.094994,213.160019 101.590378,215.243637 
	C111.375671,217.963821 121.675591,217.895905 131.500412,220.579727 
	C144.708374,224.187729 154.360336,231.377930 157.055527,245.558502 
	C159.856750,260.297058 155.957901,272.742188 143.253464,281.437347 
	C130.585312,290.107697 116.237808,292.237793 101.250420,290.859436 
	C91.013542,289.917969 81.214386,287.667297 73.060951,280.722260 
	C66.917442,275.489288 62.742657,269.040009 60.145767,261.462585 
	C59.218647,258.757324 59.503036,257.287689 62.801479,256.517426 
	C70.613274,254.693146 78.561546,253.928040 86.463722,252.789551 
	C89.463089,252.357437 91.509743,253.133728 92.558640,256.372253 
	C93.758316,260.076324 96.579346,262.421387 100.301521,263.595306 
	C106.504448,265.551666 112.771294,265.487244 118.986427,263.806763 
	C121.739281,263.062469 124.657494,261.917328 124.537773,258.329010 
	C124.422020,254.859772 121.741028,253.594284 118.807953,253.045685 
	C111.783188,251.731766 104.732239,250.558044 97.694046,249.315399 
	C96.222366,249.055557 94.760056,248.742630 92.884171,248.374985 
z"/>
<path fill="#DE0E10" opacity="1.000000" stroke="none" 
	d="
M426.691956,259.608063 
	C426.987152,255.392502 424.487122,253.878433 421.310516,253.293030 
	C413.628021,251.877258 405.898163,250.718781 398.214844,249.307175 
	C384.541992,246.795166 373.141785,241.197830 368.564697,226.726181 
	C363.608276,211.055313 369.812164,194.473160 384.552124,187.169388 
	C404.765503,177.153488 425.001526,177.518478 444.296936,190.046509 
	C450.273529,193.926971 453.106720,200.338928 455.839966,206.626755 
	C456.854828,208.961456 457.001068,211.214706 453.709229,212.067215 
	C446.948120,213.818161 440.166687,215.508270 433.470367,217.483566 
	C430.445374,218.375900 429.075714,217.580521 427.809082,214.696152 
	C423.852631,205.686676 410.086609,201.861786 401.744812,207.215820 
	C398.383911,209.372955 398.359528,212.649353 401.799652,214.725235 
	C403.963501,216.030960 406.421021,216.417084 408.939758,216.734940 
	C419.160065,218.024796 429.432983,219.108505 439.282135,222.387604 
	C453.845734,227.236282 460.932861,236.360092 461.230499,251.622391 
	C461.326019,256.521606 463.168640,257.213440 467.278534,256.398621 
	C473.802948,255.105103 480.388336,254.122208 486.932465,252.923538 
	C490.605560,252.250748 493.251984,252.822159 494.703888,256.915802 
	C495.846771,260.138092 498.546875,262.374054 501.895020,263.419647 
	C508.888489,265.603668 515.943298,265.749146 522.955322,263.501312 
	C525.263733,262.761292 527.406616,261.467377 527.290710,258.678467 
	C527.171570,255.813492 525.055786,254.330017 522.550354,253.488327 
	C516.664368,251.510910 510.450531,251.365219 504.380707,250.474701 
	C499.750061,249.795334 495.240814,248.759048 490.730316,247.588806 
	C476.759735,243.964142 468.405792,235.018219 466.918304,220.742096 
	C465.454803,206.695648 470.398743,194.722565 483.031006,187.718201 
	C501.854828,177.280701 521.306580,177.752121 540.439453,187.315308 
	C548.334900,191.261673 552.420105,198.570679 555.525757,206.503189 
	C556.685608,209.465683 556.060608,211.151199 552.807739,211.985992 
	C546.684387,213.557465 540.627014,215.384781 534.529907,217.060913 
	C531.386597,217.925003 528.943726,217.949509 527.645691,213.878235 
	C525.740417,207.902313 520.815491,205.525101 514.856934,205.335190 
	C511.057709,205.214081 507.185059,204.699203 503.467438,206.042786 
	C501.177460,206.870392 499.097778,208.116760 498.975067,210.817947 
	C498.846039,213.658051 501.027863,214.761154 503.318054,215.601196 
	C507.603821,217.173187 512.188721,216.827484 516.592285,217.678238 
	C523.277954,218.969910 530.124878,219.621796 536.672546,221.396927 
	C560.868469,227.956741 568.981323,257.249573 552.000305,275.959106 
	C542.096680,286.870697 528.982727,290.010956 515.122070,291.205353 
	C507.267731,291.882141 499.417999,291.004211 491.845978,289.027588 
	C479.028381,285.681580 469.660583,277.965393 464.390137,265.578094 
	C463.632477,263.797424 463.363556,261.700073 461.216217,260.041412 
	C460.988098,260.471100 460.687805,260.871613 460.549011,261.321869 
	C455.346191,278.202209 443.009186,286.528595 426.437286,289.732697 
	C412.599243,292.408203 398.920197,292.079681 385.665619,286.865631 
	C373.742706,282.175446 366.990570,272.881012 363.296509,260.974915 
	C362.507263,258.431213 363.297089,257.176147 365.832550,256.759552 
	C373.710846,255.465088 381.585388,254.147476 389.461029,252.837021 
	C391.903992,252.430557 393.567719,253.126984 394.498016,255.675751 
	C396.818970,262.034302 402.138123,264.130035 408.257629,264.661774 
	C411.395477,264.934448 414.607544,264.942444 417.734100,264.598022 
	C421.190277,264.217224 424.728271,263.563599 426.691956,259.608063 
z"/>
<path fill="#DE0E10" opacity="1.000000" stroke="none" 
	d="
M185.878265,182.953766 
	C196.016479,182.828079 194.827576,183.911865 196.844879,190.785767 
	C200.266418,202.444641 203.523163,214.136673 206.488190,225.917923 
	C206.991104,227.916199 207.268051,230.222351 209.819092,231.998901 
	C212.419586,227.015045 213.152115,221.606155 214.620789,216.484055 
	C217.325729,207.050369 219.936676,197.586105 222.355743,188.075836 
	C223.300873,184.360153 225.302521,182.868088 229.065384,182.936447 
	C235.891861,183.060486 242.725845,183.041809 249.550949,182.863419 
	C253.133759,182.769775 254.927597,184.067139 255.790878,187.698120 
	C258.791962,200.320618 262.099152,212.870361 265.290863,225.447525 
	C265.733154,227.190491 265.849060,229.087677 267.567383,230.332291 
	C270.282898,229.989334 270.114075,227.617966 270.602448,225.853134 
	C274.018646,213.507095 277.506805,201.177734 280.657135,188.763153 
	C281.758026,184.424988 283.953888,182.736298 288.361755,182.910919 
	C294.681824,183.161301 301.018768,183.006622 307.348358,182.987854 
	C310.626801,182.978119 311.835999,184.065384 310.710876,187.580246 
	C300.312012,220.065918 289.997772,252.578827 279.758881,285.115295 
	C278.730896,288.381927 276.953735,289.564392 273.588043,289.461243 
	C267.097839,289.262329 260.587891,289.200256 254.104218,289.488251 
	C250.261032,289.659027 248.482819,288.371552 247.522049,284.572296 
	C244.055252,270.863312 240.294357,257.228058 236.553802,243.589844 
	C236.100296,241.936310 236.241394,239.875549 234.047150,238.665497 
	C231.356888,241.453644 231.338425,245.251617 230.413437,248.604248 
	C227.140564,260.466736 223.991699,272.365265 220.970047,284.294250 
	C219.988602,288.168793 218.017014,289.722229 213.922470,289.498932 
	C207.785431,289.164215 201.611496,289.201843 195.466446,289.432709 
	C191.752121,289.572235 190.011246,287.815430 188.987961,284.600006 
	C181.872589,262.241547 174.739548,239.888611 167.576157,217.545471 
	C164.426483,207.721390 161.339645,197.872787 157.929031,188.138763 
	C156.424728,183.845459 157.907852,182.811066 161.913010,182.885880 
	C169.739105,183.032074 177.569565,182.944061 185.878265,182.953766 
z"/>
<path fill="#DE0E10" opacity="1.000000" stroke="none" 
	d="
M851.677612,312.964600 
	C851.664795,272.163147 851.651489,231.855194 851.642700,191.547226 
	C851.640808,182.964890 851.648438,182.984055 860.499084,182.987167 
	C866.828308,182.989395 873.159607,183.020996 879.485901,182.868347 
	C883.549561,182.770279 886.997498,183.085983 886.329224,188.557129 
	C886.294006,188.844803 886.501953,189.199387 886.681519,189.465591 
	C886.860168,189.730515 887.145935,189.923187 887.388245,190.143845 
	C888.532776,190.556885 889.349792,189.921295 890.024597,189.189499 
	C904.039429,173.990082 935.361389,177.802582 944.974792,202.944107 
	C953.214539,224.493179 953.617554,246.344925 944.989746,267.742096 
	C935.195801,292.031464 910.881348,297.903473 893.184509,286.265167 
	C892.080933,285.539429 890.948486,284.779755 889.419800,284.979492 
	C887.647095,286.506927 888.292358,288.648285 888.276855,290.547211 
	C888.200989,299.874023 888.093079,309.205109 888.305481,318.527618 
	C888.394348,322.428192 886.950989,324.003021 883.129150,323.899384 
	C873.977539,323.651184 864.823242,323.485229 855.669006,323.360291 
	C852.983643,323.323578 851.661316,322.184937 851.717346,319.453888 
	C851.758423,317.456390 851.695312,315.456757 851.677612,312.964600 
M888.257324,232.515686 
	C888.283691,239.181458 888.080322,245.858414 888.403992,252.509720 
	C888.700684,258.608246 893.413269,263.850189 898.591492,264.588593 
	C903.539490,265.294220 908.571655,262.091156 910.420532,255.867462 
	C914.395203,242.488098 914.676086,228.998672 909.816162,215.689621 
	C908.205688,211.279114 905.364685,208.261917 900.259033,208.302460 
	C895.302795,208.341812 892.431274,211.322632 890.217773,215.348206 
	C887.385010,220.500046 888.508301,226.085083 888.257324,232.515686 
z"/>
<path fill="#DE0E10" opacity="1.000000" stroke="none" 
	d="
M572.853882,238.000076 
	C572.849915,209.516602 572.845398,181.533096 572.845886,153.549606 
	C572.846008,146.883621 572.995178,146.714249 579.436829,146.695038 
	C587.265564,146.671692 595.103271,146.912979 602.919922,146.604691 
	C607.439087,146.426453 609.160645,147.799606 609.044617,152.501129 
	C608.789978,162.821228 609.003235,173.153397 609.070251,183.480347 
	C609.080750,185.096161 608.638184,187.049255 610.336609,188.047058 
	C612.170044,189.124146 613.403625,187.379669 614.724854,186.524658 
	C627.682434,178.139130 640.894165,178.577637 653.903015,185.994156 
	C664.009338,191.755890 666.897400,201.941299 667.085510,212.524796 
	C667.514709,236.669403 667.160034,260.827393 667.228149,284.979614 
	C667.237671,288.369995 666.185059,289.701630 662.591919,289.580627 
	C654.111755,289.295044 645.608459,289.132416 637.134216,289.447968 
	C632.146790,289.633667 630.856445,287.638885 630.900269,283.036194 
	C631.074829,264.715179 630.994873,246.391678 630.983154,228.069107 
	C630.981506,225.573532 630.909668,223.072678 630.735779,220.583664 
	C630.386108,215.579819 627.963562,212.085007 622.999146,210.731461 
	C619.077576,209.662231 613.657959,212.418015 611.191101,216.484238 
	C609.293152,219.612549 608.978882,223.051270 608.965698,226.586639 
	C608.894165,245.739578 608.697266,264.893066 608.805420,284.044861 
	C608.828857,288.205139 607.443970,289.673676 603.367554,289.568512 
	C595.046326,289.353912 586.713135,289.270660 578.393372,289.475616 
	C574.249268,289.577728 572.840210,288.054993 572.874512,283.972626 
	C573.001709,268.816223 572.882141,253.657761 572.853882,238.000076 
z"/>
<path fill="#DE0E10" opacity="1.000000" stroke="none" 
	d="
M721.719910,256.168182 
	C724.920837,262.758545 730.523132,264.809387 736.781067,264.510773 
	C743.250854,264.202026 748.578674,260.694092 750.344299,254.400452 
	C751.910583,248.817169 754.853821,247.934204 759.744568,248.776917 
	C766.627563,249.962936 773.552612,250.909821 780.466919,251.908234 
	C784.020325,252.421356 784.753296,254.192764 783.599854,257.506561 
	C777.509094,275.005341 765.633301,286.127411 747.393311,289.699707 
	C725.379883,294.010956 705.646973,289.928375 691.618591,270.975555 
	C672.171387,244.701935 679.983582,203.377747 706.625122,187.729462 
	C731.400940,173.177017 772.927063,179.988144 782.534485,217.318817 
	C784.372559,224.460587 785.573730,231.608688 785.435730,239.014175 
	C785.377075,242.162979 784.345947,243.622055 781.137451,243.607590 
	C768.662415,243.551300 756.185974,243.655441 743.712280,243.513474 
	C738.391907,243.452927 733.096985,243.929047 727.746155,243.540421 
	C719.912537,242.971481 718.495117,244.969727 720.411011,252.527206 
	C720.695984,253.651459 721.170471,254.727646 721.719910,256.168182 
M745.711365,220.675934 
	C748.437866,220.380676 748.819031,218.905426 748.157288,216.468536 
	C746.371582,209.892395 741.721313,205.591400 735.742310,205.258957 
	C728.559143,204.859589 723.832031,207.995468 721.176880,214.921646 
	C719.653809,218.894562 720.680359,220.638107 724.918701,220.712006 
	C731.565369,220.827896 738.215759,220.730087 745.711365,220.675934 
z"/>
<path fill="#DE0E10" opacity="1.000000" stroke="none" 
	d="
M318.716492,273.995667 
	C318.714386,245.668549 318.706909,217.840851 318.712158,190.013153 
	C318.713379,183.528290 319.000122,183.113846 325.364136,183.003906 
	C333.192902,182.868637 341.026398,183.030899 348.856812,182.956314 
	C352.375336,182.922806 354.028931,184.355026 354.020660,187.995728 
	C353.947235,220.321503 353.919464,252.647430 353.944489,284.973267 
	C353.947144,288.406158 352.607300,289.588531 349.143738,289.496582 
	C340.651123,289.271118 332.146698,289.276947 323.651947,289.441620 
	C319.975098,289.512878 318.501617,288.155792 318.705475,284.490753 
	C318.890289,281.168915 318.726105,277.827728 318.716492,273.995667 
z"/>
<path fill="#DE0E10" opacity="1.000000" stroke="none" 
	d="
M354.001678,168.891296 
	C353.927673,178.091202 353.927673,178.090881 345.112030,178.097504 
	C337.958862,178.102890 330.804291,178.028015 323.653076,178.149185 
	C320.059967,178.210083 318.583710,176.797165 318.663361,173.118896 
	C318.836182,165.137390 318.839996,157.147308 318.674408,149.165695 
	C318.603058,145.725983 319.960175,144.116699 323.306213,144.392792 
	C331.795197,145.093262 340.256744,144.048813 348.735992,144.078812 
	C352.583649,144.092422 354.118835,145.625198 354.028625,149.445129 
	C353.879456,155.763016 353.996094,162.087189 354.001678,168.891296 
z"/>
</svg>